<svg width="163" height="42" viewBox="0 0 163 42" fill="none" xmlns="http://www.w3.org/2000/svg">
<path d="M14.6261 16.4226C14.6284 16.9349 14.4837 17.4371 14.209 17.8701C13.9344 18.3031 13.5413 18.6488 13.0761 18.8665C12.6108 19.0841 12.0929 19.1647 11.5832 19.0986C11.0736 19.0325 10.5935 18.8225 10.1996 18.4934C10.0816 18.3837 9.97213 18.2652 9.8721 18.139C9.59372 17.806 9.39997 17.4111 9.30728 16.9877C9.21459 16.5642 9.2257 16.1247 9.33965 15.7065C9.45361 15.2882 9.66706 14.9035 9.9619 14.5849C10.2567 14.2664 10.6243 14.0234 11.0334 13.8766C11.4425 13.7298 11.8811 13.6834 12.312 13.7415C12.7429 13.7995 13.1534 13.9603 13.5087 14.2101C13.864 14.46 14.1536 14.7915 14.353 15.1767C14.5524 15.5618 14.6557 15.9892 14.6542 16.4226H14.6261Z" fill="#2F8647"/>
<path d="M19.2301 9.65958L15.6272 13.2229C15.588 13.2624 15.5414 13.2938 15.49 13.3152C15.4386 13.3365 15.3834 13.3476 15.3277 13.3476C15.272 13.3476 15.2169 13.3365 15.1655 13.3152C15.1141 13.2938 15.0674 13.2624 15.0283 13.2229C14.4276 12.6466 13.679 12.2468 12.865 12.0674C12.051 11.888 11.2031 11.936 10.4146 12.2062C9.57058 12.5308 8.85417 13.1183 8.37195 13.8813C7.88973 14.6443 7.66746 15.5421 7.73818 16.4411C7.95551 17.7327 8.58964 18.9182 9.54433 19.8179C10.2641 20.5561 10.6667 21.545 10.6667 22.5744C10.6667 23.6038 10.2641 24.5926 9.54433 25.3308L8.4962 26.3942C8.41748 26.4712 8.31165 26.5142 8.20142 26.5142C8.09119 26.5142 7.98535 26.4712 7.90663 26.3942C6.47255 25.2134 5.12467 23.9322 3.87322 22.5604C2.52588 21.0827 1.51403 19.3327 0.906651 17.4299C0.587587 16.3596 0.454653 15.2428 0.513604 14.1278C0.577056 12.9982 0.833408 11.8878 1.27162 10.8442C1.47967 10.3191 1.73988 9.81597 2.04836 9.34242C2.19886 9.10434 2.36128 8.87396 2.53499 8.65214C2.74087 8.40028 2.95611 8.15775 3.18071 7.91522L3.48953 7.58873C3.52965 7.54755 3.57766 7.51481 3.63071 7.49245C3.68375 7.47009 3.74076 7.45857 3.79835 7.45857C3.85595 7.45857 3.91295 7.47009 3.966 7.49245C4.01905 7.51481 4.06705 7.54755 4.10718 7.58873L4.89327 8.36297C4.96279 8.42857 5.05489 8.46513 5.15062 8.46513C5.24636 8.46513 5.33845 8.42857 5.40798 8.36297C7.38862 6.72554 9.91268 5.88689 12.4828 6.01228C15.0325 6.1566 17.4373 7.24044 19.2301 9.05325C19.3107 9.1337 19.356 9.24273 19.356 9.35641C19.356 9.47009 19.3107 9.57913 19.2301 9.65958Z" fill="#2F4786"/>
<path d="M10.4425 27.2806C10.445 26.587 10.7232 25.9227 11.2161 25.4332C11.7089 24.9436 12.3764 24.6687 13.0722 24.6687C13.6852 24.6655 14.2792 24.8805 14.7473 25.2751C14.8772 25.378 14.9963 25.4936 15.103 25.6202C15.3656 25.9459 15.5463 26.3295 15.6301 26.739C15.7138 27.1484 15.6981 27.5719 15.5842 27.9741C15.4704 28.3763 15.2617 28.7456 14.9757 29.051C14.6896 29.3565 14.3344 29.5894 13.9397 29.7302C13.545 29.8711 13.1222 29.9158 12.7066 29.8607C12.2911 29.8056 11.8947 29.6523 11.5507 29.4135C11.2066 29.1747 10.9248 28.8574 10.7288 28.488C10.5328 28.1186 10.4282 27.7078 10.4238 27.2899L10.4425 27.2806Z" fill="#2F4786"/>
<path d="M5.8104 33.7636L9.38526 30.2002C9.46663 30.1248 9.57362 30.0829 9.68472 30.0829C9.79583 30.0829 9.90281 30.1248 9.98419 30.2002C10.5882 30.7742 11.3393 31.171 12.1549 31.347C12.9705 31.5231 13.819 31.4717 14.6072 31.1983C15.4486 30.87 16.1624 30.2817 16.644 29.5196C17.1257 28.7575 17.3498 27.8617 17.2836 26.9634C17.065 25.6797 16.4345 24.5013 15.4868 23.6052C14.7677 22.8686 14.3653 21.8813 14.3653 20.8534C14.3653 19.8256 14.7677 18.8383 15.4868 18.1016L16.5256 17.0569C16.6039 16.9828 16.7077 16.9414 16.8157 16.9414C16.9237 16.9414 17.0276 16.9828 17.1058 17.0569C18.5297 18.2194 19.8653 19.4852 21.1018 20.8441C22.4523 22.316 23.4647 24.0636 24.0684 25.9653C24.3991 27.0559 24.5415 28.1946 24.4895 29.3327C24.427 30.4635 24.1772 31.5761 23.7502 32.6256C23.5345 33.1442 23.2746 33.6436 22.9735 34.1181C22.8144 34.3606 22.6553 34.5845 22.4775 34.8083C22.275 35.0648 22.0595 35.3108 21.8317 35.5453L21.5229 35.8717C21.4835 35.9141 21.4357 35.9479 21.3826 35.9711C21.3294 35.9942 21.2721 36.0061 21.2141 36.0061C21.1561 36.0061 21.0988 35.9942 21.0456 35.9711C20.9925 35.9479 20.9447 35.9141 20.9053 35.8717L20.166 35.0695C20.0949 35.0033 20.0012 34.9664 19.9039 34.9664C19.8067 34.9664 19.713 35.0033 19.6419 35.0695C17.6748 36.7174 15.1544 37.5614 12.5881 37.4316C10.0218 37.3018 7.60009 36.2079 5.8104 34.3699C5.72983 34.2895 5.68457 34.1804 5.68457 34.0667C5.68457 33.9531 5.72983 33.844 5.8104 33.7636Z" fill="#2F8647"/>
<path d="M39.3985 29.3778C38.2891 28.9443 37.3222 28.2124 36.6053 27.2636C35.885 26.2832 35.4978 25.099 35.5 23.8838H40.713C40.7492 24.531 41.0261 25.1415 41.4897 25.596C41.9478 26.0116 42.5432 26.2448 43.1626 26.2511C43.7815 26.2865 44.3936 26.1077 44.8953 25.7449C45.1034 25.581 45.2689 25.3696 45.3781 25.1287C45.4872 24.8878 45.5368 24.6243 45.5227 24.3603C45.5316 24.1323 45.4908 23.905 45.4031 23.6943C45.3154 23.4835 45.183 23.2942 45.0148 23.1394C44.6601 22.7979 44.2448 22.5253 43.79 22.3354C43.1065 22.0593 42.4084 21.8207 41.6988 21.6207C40.6212 21.2585 39.5726 20.8156 38.5621 20.2956C37.7232 19.8825 36.9959 19.2749 36.441 18.5239C35.8215 17.6294 35.512 16.5576 35.5598 15.4717C35.5196 14.6307 35.6832 13.7926 36.0368 13.028C36.3904 12.2635 36.9236 11.5951 37.5912 11.0795C39.1259 9.96366 40.996 9.40181 42.8938 9.48636C44.8108 9.39531 46.7019 9.95713 48.2561 11.0795C48.9366 11.6096 49.4867 12.2874 49.8646 13.0615C50.2425 13.8355 50.4382 14.6853 50.4369 15.5461H45.1343C45.1211 15.2627 45.0509 14.9848 44.9277 14.729C44.8045 14.4732 44.6309 14.2447 44.4173 14.0572C43.9416 13.6734 43.3408 13.4773 42.7295 13.5063C42.1904 13.4618 41.655 13.6273 41.2358 13.9679C41.0432 14.1673 40.8994 14.4083 40.8154 14.672C40.7313 14.9358 40.7094 15.2154 40.7513 15.489C40.7932 15.7626 40.8978 16.0229 41.0569 16.2497C41.2161 16.4765 41.4255 16.6637 41.6689 16.7968C42.5791 17.2917 43.5408 17.6861 44.5368 17.973C45.6188 18.32 46.6766 18.7378 47.7034 19.2236C48.5275 19.6398 49.2472 20.2351 49.8095 20.9656C50.4392 21.8278 50.7553 22.8781 50.7057 23.9434C50.7155 25.0478 50.4098 26.1322 49.8245 27.07C49.1926 28.008 48.3141 28.7549 47.2852 29.2289C46.0588 29.8081 44.7136 30.0937 43.3568 30.0627C42.0051 30.0946 40.6603 29.8619 39.3985 29.3778Z" fill="#2F4786"/>
<path d="M56.7702 29.1248C55.521 28.4757 54.4844 27.4837 53.7828 26.2661C53.0437 24.9377 52.6725 23.4372 52.7073 21.9186C52.6739 20.403 53.0506 18.9064 53.7977 17.586C54.4964 16.3624 55.5334 15.3649 56.7851 14.7124C58.1051 14.0569 59.5598 13.7157 61.0346 13.7157C62.5094 13.7157 63.9641 14.0569 65.2842 14.7124C66.5358 15.3649 67.5728 16.3624 68.2715 17.586C69.0187 18.9064 69.3953 20.403 69.3619 21.9186C69.3953 23.4342 69.0187 24.9308 68.2715 26.2512C67.5637 27.4678 66.5291 28.463 65.2842 29.1248C63.9696 29.8026 62.507 30.1453 61.0272 30.1223C59.5463 30.1542 58.0816 29.811 56.7702 29.1248ZM63.3872 24.8666C63.7397 24.4592 64.0083 23.9864 64.1774 23.4755C64.3466 22.9646 64.413 22.4254 64.373 21.8888C64.4556 20.81 64.1126 19.7417 63.4171 18.9111C63.1182 18.5962 62.7564 18.3474 62.355 18.1807C61.9536 18.014 61.5216 17.9331 61.0869 17.9433C60.6394 17.9341 60.195 18.0196 59.7831 18.1941C59.3711 18.3686 59.001 18.6282 58.697 18.9557C58.0151 19.7931 57.6786 20.8578 57.756 21.9335C57.6789 23.0067 58.0095 24.0696 58.6821 24.9113C58.9721 25.2451 59.3329 25.5105 59.7385 25.6882C60.1441 25.8659 60.5843 25.9514 61.0272 25.9386C61.4738 25.9342 61.9146 25.8365 62.3211 25.6519C62.7276 25.4672 63.0908 25.1997 63.3872 24.8666Z" fill="#2F4786"/>
<path d="M72.0208 17.5711C72.6694 16.3645 73.6552 15.3715 74.8588 14.7124C76.1348 14.0317 77.5644 13.6883 79.0113 13.7149C80.8188 13.6498 82.5945 14.2013 84.045 15.2782C85.4405 16.4007 86.3842 17.9861 86.7038 19.7448H81.5057C81.3588 19.2012 81.0332 18.7223 80.581 18.3849C80.1287 18.0475 79.576 17.871 79.0113 17.8837C78.5949 17.8706 78.1815 17.9586 77.8068 18.1402C77.432 18.3217 77.1073 18.5914 76.8604 18.926C76.2729 19.8043 75.9896 20.85 76.0538 21.9037C75.9896 22.9574 76.2729 24.0032 76.8604 24.8815C77.109 25.2142 77.4341 25.4825 77.8084 25.6638C78.1827 25.8452 78.5952 25.9343 79.0113 25.9237C79.5821 25.9518 80.1457 25.7859 80.6096 25.4532C81.0736 25.1205 81.4106 24.6408 81.5655 24.0924H86.7785C86.4383 25.8263 85.4906 27.3831 84.1048 28.4846C82.6546 29.6136 80.85 30.1938 79.0113 30.1223C77.5593 30.1515 76.1243 29.808 74.8439 29.1248C73.6437 28.4595 72.663 27.4612 72.0208 26.2512C71.3217 24.91 70.9724 23.4149 71.0051 21.9037C70.9717 20.3972 71.3211 18.9068 72.0208 17.5711Z" fill="#2F4786"/>
<path d="M89.6914 11.5262C89.4264 11.2914 89.2158 11.002 89.0739 10.6781C88.9321 10.3543 88.8625 10.0035 88.8699 9.65021C88.8611 9.29232 88.93 8.93677 89.0718 8.60785C89.2136 8.27894 89.4249 7.98442 89.6914 7.74444C90.2813 7.26304 91.0202 7 91.7826 7C92.545 7 93.2838 7.26304 93.8737 7.74444C94.1402 7.98442 94.3516 8.27894 94.4934 8.60785C94.6352 8.93677 94.704 9.29232 94.6953 9.65021C94.7121 9.9979 94.6542 10.3452 94.5254 10.6687C94.3966 10.9923 94.1999 11.2846 93.9484 11.5262C93.3623 12.0157 92.622 12.284 91.8573 12.284C91.0926 12.284 90.3523 12.0157 89.7661 11.5262H89.6914ZM94.1725 13.9382V29.899H89.3329V13.9382H94.1725Z" fill="#2F4786"/>
<path d="M100.849 29.1247C99.6001 28.4756 98.5635 27.4837 97.8619 26.2661C97.1228 24.9377 96.7516 23.4372 96.7864 21.9186C96.753 20.403 97.1297 18.9063 97.8768 17.5859C98.5728 16.3602 99.6105 15.362 100.864 14.7124C102.181 14.0559 103.634 13.7141 105.106 13.7141C106.579 13.7141 108.031 14.0559 109.348 14.7124C110.597 15.3696 111.632 16.3659 112.336 17.5859C113.076 18.909 113.452 20.4038 113.426 21.9186C113.464 23.4328 113.093 24.9293 112.351 26.2512C111.643 27.4677 110.608 28.463 109.363 29.1247C108.049 29.8025 106.586 30.1452 105.106 30.1223C103.625 30.1541 102.161 29.8109 100.849 29.1247ZM107.466 24.8665C107.819 24.4591 108.087 23.9864 108.257 23.4755C108.426 22.9645 108.492 22.4253 108.452 21.8888C108.535 20.81 108.192 19.7416 107.496 18.911C107.199 18.5816 106.835 18.3194 106.428 18.1421C106.021 17.9649 105.58 17.8768 105.136 17.8837C104.689 17.8745 104.244 17.96 103.832 18.1345C103.42 18.309 103.05 18.5686 102.746 18.8961C102.064 19.7334 101.728 20.7982 101.805 21.8739C101.728 22.9471 102.059 24.01 102.731 24.8516C103.021 25.1855 103.382 25.4509 103.788 25.6286C104.193 25.8063 104.634 25.8918 105.076 25.879C105.524 25.8872 105.968 25.8013 106.38 25.6269C106.791 25.4524 107.162 25.1933 107.466 24.8665Z" fill="#2F4786"/>
<path d="M131.857 13.9382V29.899H126.958V27.7401C126.431 28.4639 125.734 29.0469 124.927 29.4375C124.051 29.8727 123.082 30.0923 122.104 30.0777C120.966 30.0938 119.845 29.8003 118.862 29.229C117.919 28.6754 117.161 27.8572 116.682 26.8766C116.154 25.7496 115.893 24.5169 115.92 23.2735V13.9382H120.834V22.6035C120.78 23.5089 121.08 24.3998 121.67 25.0899C121.956 25.3886 122.302 25.6229 122.686 25.777C123.07 25.9311 123.483 26.0014 123.896 25.9833C124.316 26.0021 124.736 25.9322 125.127 25.7783C125.518 25.6243 125.872 25.3898 126.167 25.0899C126.757 24.3998 127.057 23.5089 127.003 22.6035V13.9382H131.857Z" fill="#2F4786"/>
<path d="M138.176 29.4076C137.157 28.9884 136.266 28.3108 135.592 27.4423C134.964 26.6426 134.594 25.6718 134.531 24.6581H139.371C139.395 24.9242 139.477 25.1818 139.611 25.4131C139.746 25.6445 139.928 25.8441 140.148 25.9981C140.637 26.3533 141.23 26.5366 141.835 26.5192C142.359 26.5661 142.884 26.4406 143.329 26.1619C143.499 26.0508 143.636 25.895 143.723 25.7117C143.81 25.5284 143.844 25.3246 143.823 25.1229C143.801 24.9212 143.724 24.7294 143.6 24.5686C143.476 24.4077 143.31 24.2842 143.12 24.2114C142.363 23.9087 141.584 23.6647 140.79 23.4819C139.815 23.2734 138.856 22.9948 137.922 22.6481C137.159 22.3517 136.481 21.8707 135.95 21.2486C135.364 20.5157 135.066 19.5943 135.114 18.6579C135.112 17.7671 135.377 16.896 135.876 16.1566C136.433 15.357 137.211 14.7362 138.116 14.37C139.228 13.911 140.423 13.6879 141.626 13.7149C143.339 13.6188 145.027 14.1481 146.376 15.2037C146.951 15.6989 147.423 16.3023 147.764 16.9793C148.104 17.6563 148.308 18.3937 148.363 19.1493H143.882C143.854 18.8909 143.776 18.6407 143.65 18.4131C143.524 18.1856 143.354 17.9853 143.15 17.8242C142.679 17.4925 142.112 17.325 141.537 17.3477C141.07 17.3159 140.605 17.4305 140.207 17.6753C140.062 17.7741 139.943 17.9076 139.862 18.0635C139.782 18.2195 139.741 18.3931 139.744 18.5686C139.746 18.7939 139.817 19.0132 139.948 19.1968C140.079 19.3805 140.263 19.5198 140.476 19.5959C141.211 19.9064 141.977 20.1361 142.761 20.2808C143.744 20.5277 144.712 20.831 145.659 21.189C146.43 21.5158 147.107 22.0272 147.631 22.6779C148.224 23.4319 148.531 24.3705 148.497 25.3281C148.506 26.2198 148.229 27.091 147.706 27.8145C147.133 28.5947 146.351 29.1983 145.45 29.5565C144.359 29.9929 143.19 30.2055 142.015 30.1818C140.694 30.2037 139.384 29.9396 138.176 29.4076Z" fill="#2F4786"/>
</svg>
