<svg width="24" height="32" viewBox="0 0 24 32" fill="none" xmlns="http://www.w3.org/2000/svg">
    <path d="M14.126 10.4225C14.1283 10.9348 13.9836 11.437 13.7089 11.87C13.4343 12.303 13.0412 12.6487 12.5759 12.8664C12.1107 13.084 11.5927 13.1646 11.0831 13.0985C10.5735 13.0324 10.0934 12.8224 9.69952 12.4933C9.58151 12.3836 9.47201 12.2651 9.37198 12.1389C9.0936 11.8059 8.89985 11.411 8.80716 10.9875C8.71447 10.5641 8.72557 10.1246 8.83953 9.70634C8.95349 9.28808 9.16693 8.90337 9.46178 8.58483C9.75663 8.26628 10.1242 8.0233 10.5333 7.87646C10.9424 7.72963 11.381 7.68328 11.8119 7.74134C12.2427 7.79941 12.6532 7.96017 13.0085 8.21001C13.3638 8.45984 13.6535 8.79139 13.8529 9.17653C14.0523 9.56168 14.1556 9.98907 14.1541 10.4225H14.126Z" fill="#000" />
    <path d="M18.7301 3.65958L15.1272 7.22292C15.088 7.26241 15.0414 7.29376 14.99 7.31515C14.9386 7.33654 14.8834 7.34756 14.8277 7.34756C14.772 7.34756 14.7169 7.33654 14.6655 7.31515C14.6141 7.29376 14.5674 7.26241 14.5283 7.22292C13.9276 6.64663 13.179 6.24676 12.365 6.06736C11.551 5.88796 10.7031 5.93599 9.91464 6.20616C9.07058 6.53078 8.35417 7.11828 7.87195 7.88129C7.38973 8.64431 7.16746 9.54209 7.23818 10.4411C7.45551 11.7327 8.08964 12.9182 9.04433 13.8179C9.76407 14.5561 10.1667 15.545 10.1667 16.5744C10.1667 17.6038 9.76407 18.5926 9.04433 19.3308L7.9962 20.3942C7.91748 20.4712 7.81165 20.5142 7.70142 20.5142C7.59119 20.5142 7.48535 20.4712 7.40663 20.3942C5.97255 19.2134 4.62467 17.9322 3.37322 16.5604C2.02588 15.0827 1.01403 13.3327 0.406651 11.4299C0.0875875 10.3596 -0.0453472 9.24276 0.0136043 8.12775C0.0770563 6.99824 0.333408 5.8878 0.771623 4.84425C0.979669 4.31909 1.23988 3.81597 1.54836 3.34242C1.69886 3.10434 1.86128 2.87396 2.03499 2.65214C2.24087 2.40028 2.45611 2.15775 2.68071 1.91522L2.98953 1.58873C3.02965 1.54755 3.07766 1.51481 3.13071 1.49245C3.18375 1.47009 3.24076 1.45857 3.29835 1.45857C3.35595 1.45857 3.41295 1.47009 3.466 1.49245C3.51905 1.51481 3.56705 1.54755 3.60718 1.58873L4.39327 2.36297C4.46279 2.42857 4.55489 2.46513 4.65062 2.46513C4.74636 2.46513 4.83845 2.42857 4.90798 2.36297C6.88862 0.725538 9.41268 -0.113106 11.9828 0.0122764C14.5325 0.156596 16.9373 1.24044 18.7301 3.05325C18.8107 3.1337 18.856 3.24273 18.856 3.35641C18.856 3.47009 18.8107 3.57913 18.7301 3.65958Z" fill="#000" />
    <path d="M9.94279 21.2806C9.94526 20.587 10.2234 19.9227 10.7163 19.4332C11.2092 18.9436 11.8766 18.6687 12.5725 18.6687C13.1855 18.6655 13.7795 18.8805 14.2476 19.2751C14.3774 19.378 14.4965 19.4936 14.6032 19.6202C14.8659 19.9459 15.0466 20.3295 15.1303 20.739C15.214 21.1484 15.1983 21.5719 15.0845 21.9741C14.9706 22.3763 14.762 22.7456 14.4759 23.051C14.1898 23.3565 13.8346 23.5894 13.4399 23.7302C13.0452 23.8711 12.6225 23.9158 12.2069 23.8607C11.7913 23.8056 11.395 23.6523 11.0509 23.4135C10.7069 23.1747 10.4251 22.8574 10.2291 22.488C10.033 22.1186 9.92848 21.7078 9.92407 21.2899L9.94279 21.2806Z" fill="#000" />
    <path d="M5.3104 27.7636L8.88526 24.2002C8.96663 24.1248 9.07362 24.0829 9.18472 24.0829C9.29583 24.0829 9.40281 24.1248 9.48419 24.2002C10.0882 24.7742 10.8393 25.171 11.6549 25.347C12.4705 25.5231 13.319 25.4717 14.1072 25.1983C14.9486 24.87 15.6624 24.2817 16.144 23.5196C16.6257 22.7575 16.8498 21.8617 16.7836 20.9634C16.565 19.6797 15.9345 18.5013 14.9868 17.6052C14.2677 16.8686 13.8653 15.8813 13.8653 14.8534C13.8653 13.8256 14.2677 12.8383 14.9868 12.1016L16.0256 11.0569C16.1039 10.9828 16.2077 10.9414 16.3157 10.9414C16.4237 10.9414 16.5276 10.9828 16.6058 11.0569C18.0297 12.2194 19.3653 13.4852 20.6018 14.8441C21.9523 16.316 22.9647 18.0636 23.5684 19.9653C23.8991 21.0559 24.0415 22.1946 23.9895 23.3327C23.927 24.4635 23.6772 25.5761 23.2502 26.6256C23.0345 27.1442 22.7746 27.6436 22.4735 28.1181C22.3144 28.3606 22.1553 28.5845 21.9775 28.8083C21.775 29.0648 21.5595 29.3108 21.3317 29.5453L21.0229 29.8717C20.9835 29.9141 20.9357 29.9479 20.8826 29.9711C20.8294 29.9942 20.7721 30.0061 20.7141 30.0061C20.6561 30.0061 20.5988 29.9942 20.5456 29.9711C20.4925 29.9479 20.4447 29.9141 20.4053 29.8717L19.666 29.0695C19.5949 29.0033 19.5012 28.9664 19.4039 28.9664C19.3067 28.9664 19.213 29.0033 19.1419 29.0695C17.1748 30.7174 14.6544 31.5614 12.0881 31.4316C9.5218 31.3018 7.10009 30.2079 5.3104 28.3699C5.22983 28.2895 5.18457 28.1804 5.18457 28.0667C5.18457 27.9531 5.22983 27.844 5.3104 27.7636Z" fill="#000" />
</svg>