<svg width="105" height="138" viewBox="0 0 105 138" fill="none" xmlns="http://www.w3.org/2000/svg">
<path d="M61.707 45.9866C61.7007 48.7567 60.7123 51.4347 58.9174 53.5446C57.1226 55.6545 54.6376 57.0595 51.9044 57.5099C49.1712 57.9602 46.3669 57.4266 43.99 56.0041C41.6132 54.5815 39.8178 52.3621 38.9232 49.7405C38.0286 47.1189 38.0926 44.2649 39.104 41.6861C40.1154 39.1073 42.0086 36.9707 44.4469 35.6563C46.8852 34.3418 49.7107 33.9346 52.4209 34.5072C55.1311 35.0797 57.5505 36.5949 59.2489 38.7832C60.8478 40.8435 61.713 43.3787 61.707 45.9866Z" fill="#2F8647"/>
<path d="M81.539 16.5966L66.0426 32.093C65.6996 32.4396 65.2342 32.6376 64.7466 32.6444C64.259 32.6511 63.7883 32.466 63.4359 32.129C58.2719 27.1271 50.1906 25.1777 43.4148 27.6899C36.0853 30.3912 30.9619 38.342 31.7993 46.1172C32.4071 51.7224 35.7432 56.6837 39.6285 60.7762L39.7411 60.8977C42.8434 64.121 44.5636 68.4287 44.535 72.9023C44.5065 77.3759 42.7313 81.6613 39.588 84.8447L35.0859 89.3828C34.7519 89.7194 34.3028 89.9167 33.829 89.9351C33.3553 89.9535 32.8922 89.7915 32.5331 89.4819C26.4237 84.2188 20.3458 78.8838 15.0558 72.7969C9.3831 66.2778 4.60632 58.8177 2.18867 50.5203C-0.529582 41.0111 0.022124 30.8649 3.75542 21.7065C4.68478 19.4417 5.81482 17.2645 7.13203 15.2009C7.78934 14.1699 8.48268 13.166 9.25254 12.2025C10.126 11.0815 11.0939 10.046 12.0664 8.99697L13.39 7.57879C13.5611 7.39332 13.7679 7.24434 13.9981 7.14079C14.2282 7.03724 14.4769 6.98126 14.7292 6.97621C14.9814 6.97117 15.2322 7.01716 15.4662 7.11142C15.7003 7.20569 15.9129 7.34628 16.0913 7.52477L19.4814 10.8969C19.7767 11.192 20.1722 11.3651 20.5894 11.3818C21.0065 11.3984 21.4146 11.2575 21.7325 10.9869C30.2454 3.86549 41.1295 0.214052 52.2149 0.760602C63.3003 1.30715 73.7725 6.01154 81.5435 13.9358C81.719 14.1103 81.8581 14.3177 81.9529 14.5462C82.0477 14.7747 82.0963 15.0198 82.0959 15.2671C82.0955 15.5145 82.0461 15.7594 81.9505 15.9876C81.8549 16.2158 81.7151 16.4228 81.539 16.5966Z" fill="#2F4786"/>
<path d="M43.5544 93.2322C43.5559 91.0676 44.1734 88.9481 45.3347 87.1215C46.496 85.2948 48.1532 83.8364 50.1127 82.9167C52.0721 81.9969 54.2529 81.6538 56.4001 81.9274C58.5473 82.2011 60.5722 83.0802 62.2384 84.462C62.7869 84.9152 63.2905 85.4203 63.7421 85.9702C64.9092 87.3798 65.72 89.0495 66.1059 90.8384C66.4918 92.6273 66.4415 94.4828 65.9593 96.2482C65.4771 98.0135 64.5771 99.6369 63.3353 100.981C62.0935 102.326 60.5465 103.351 58.8248 103.972C57.1032 104.592 55.2575 104.789 53.4437 104.546C51.6298 104.303 49.9011 103.627 48.4036 102.575C46.9061 101.523 45.6837 100.126 44.8397 98.5026C43.9957 96.8788 43.5548 95.0757 43.5544 93.2457V93.2322Z" fill="#2F4786"/>
<path d="M23.4746 121.42L38.9755 105.928C39.3177 105.582 39.7819 105.384 40.2684 105.376C40.7549 105.369 41.225 105.552 41.5778 105.887C46.7552 110.894 54.8276 112.843 61.5853 110.331C68.9193 107.63 74.0427 99.6789 73.2008 91.9037C72.5976 86.2985 69.2615 81.3371 65.3761 77.2447L65.2591 77.1231C62.1589 73.8988 60.4401 69.5914 60.4687 65.1186C60.4973 60.6457 62.271 56.3607 65.4121 53.1762L69.9143 48.638C70.2474 48.3021 70.6953 48.1047 71.168 48.0855C71.6407 48.0663 72.1032 48.2267 72.4625 48.5345C78.5719 53.802 84.6498 59.137 89.9443 65.2194C95.617 71.7431 100.394 79.2031 102.807 87.5006C105.531 97.009 104.979 107.157 101.24 116.314C100.314 118.58 99.1856 120.757 97.8681 122.82C97.2063 123.851 96.5175 124.855 95.7476 125.818C94.8472 126.939 93.9062 127.975 92.9293 129.024L91.5876 130.424C91.4165 130.61 91.2097 130.759 90.9796 130.862C90.7494 130.966 90.5008 131.022 90.2485 131.027C89.9962 131.032 89.7455 130.986 89.5114 130.891C89.2773 130.797 89.0647 130.657 88.8863 130.478L85.4962 127.106C85.2004 126.812 84.805 126.639 84.3882 126.623C83.9714 126.606 83.5635 126.746 83.2451 127.016C74.7391 134.133 63.8633 137.784 52.7857 137.24C41.7081 136.696 31.2423 131.997 23.4746 124.081C23.2994 123.906 23.1604 123.699 23.0656 123.47C22.9707 123.242 22.9219 122.997 22.9219 122.75C22.9219 122.503 22.9707 122.258 23.0656 122.03C23.1604 121.802 23.2994 121.594 23.4746 121.42Z" fill="#2F8647"/>
</svg>
